<?xml version="1.0" standalone="no"?><!DOCTYPE svg PUBLIC "-//W3C//DTD SVG 1.1//EN" "http://www.w3.org/Graphics/SVG/1.1/DTD/svg11.dtd"><svg t="1549604330588" class="icon" style="" viewBox="0 0 1024 1024" version="1.1" xmlns="http://www.w3.org/2000/svg" p-id="942" xmlns:xlink="http://www.w3.org/1999/xlink" width="17px" height="20px"><defs><style type="text/css"></style></defs><path d="M320 392a32 32 0 1 1 0-64h464a32 32 0 1 1 0 64h-464zM56 336a32 32 0 1 1 0-64h96a32 32 0 1 1 0 64H56zM56 752a32 32 0 1 1 0-64h96a32 32 0 1 1 0 64H56zM320 552a32 32 0 1 1 0-64h464a32 32 0 1 1 0 64h-464zM320 712a32 32 0 1 1 0-64h464a32 32 0 1 1 0 64h-464z" fill="#ffffff" p-id="943"></path><path d="M136 209.92a32 32 0 1 1-64 0V64c0-35.488 29.056-64 64.608-64h798.784C970.944 0 1000 28.512 1000 64v896c0 35.488-29.056 64-64.608 64H136.608C101.056 1024 72 995.488 72 960v-142.288a32 32 0 1 1 64 0V960c0-0.096 266.464-0.096 799.392 0 0.32 0 0.512-298.672 0.608-896 0 0.096-266.464 0.096-799.392 0-0.32 0-0.512 48.64-0.608 145.92zM136 608a32 32 0 1 1-64 0V416a32 32 0 1 1 64 0v192z" fill="#ffffff" p-id="944"></path></svg>