	<svg xmlns="http://www.w3.org/2000/svg" viewBox="450 75 60 570" width="440" height="760" preserveAspectRatio="xMidYMid meet" style="width: 100%; height: 100%; transform: translate3d(0px, 0px, 0px);"><defs><clipPath id="animationMask_t4XGwu3yms"><rect width="960" height="760" x="0" y="0"></rect></clipPath><clipPath id="cp_OSgtlI1O"><path d="M0,0 L1200,0 L1200,800 L0,800z"></path></clipPath><mask id="ly_U7zCky55ZX" mask-type="alpha"><g transform="matrix(1,0,0,1,600,380)" opacity="0.922559999999919" style="display: none;"><g opacity="1" transform="matrix(2,0,0,2,0,0)"><path fill="rgb(255,255,255)" fill-opacity="1" d=" M148,-94 C148,-94 148,94 148,94 C148,96.20760345458984 146.2075958251953,98 144,98 C144,98 -144,98 -144,98 C-146.2075958251953,98 -148,96.20760345458984 -148,94 C-148,94 -148,-94 -148,-94 C-148,-96.20760345458984 -146.2075958251953,-98 -144,-98 C-144,-98 144,-98 144,-98 C146.2075958251953,-98 148,-96.20760345458984 148,-94z"></path></g></g></mask><clipPath id="cp_IVl2hC9I"><path d="M0,0 L1200,0 L1200,800 L0,800z"></path></clipPath><mask id="ly_FFZMhRYh74" mask-type="alpha"><g transform="matrix(1,0,0,1,600,380)" opacity="1" style="display: block;"><g opacity="1" transform="matrix(2,0,0,2,0,0)"><path fill="rgb(255,255,255)" fill-opacity="1" d=" M78,-138 C78,-138 78,138 78,138 C78,138 -78,138 -78,138 C-78,138 -78,-138 -78,-138 C-78,-138 78,-138 78,-138z"></path></g></g></mask><clipPath id="cp_Hcqs2kI5"><path d="M0,0 L1200,0 L1200,800 L0,800z"></path></clipPath><clipPath id="SWGzGQ20qg"><path fill="#ffffff" clip-rule="nonzero" d=" M0,0 C0,0 0,800 0,800 C0,800 1200,800 1200,800 C1200,800 1200,0 1200,0 C1200,0 0,0 0,0" fill-opacity="1"></path></clipPath><clipPath id="cp_UMefxHhk"><path d="M0,0 L1200,0 L1200,800 L0,800z"></path></clipPath></defs><g clip-path="url(#animationMask_t4XGwu3yms)"><g clip-path="url(#cp_OSgtlI1O)" transform="matrix(1,0,0,1,-120,-20)" opacity="1" style="display: block;"><g transform="matrix(0,0,0,1,600,626)" opacity="1" style="display: block;"><g opacity="1" transform="matrix(2,0,0,2,0,0)"><path stroke-linecap="butt" stroke-linejoin="miter" fill-opacity="0" stroke-miterlimit="4" stroke="rgb(218,219,223)" stroke-opacity="1" stroke-width="4" d=" M0,1 C0,1 60,1 60,1"></path></g></g><g transform="matrix(0,1,-1,0,600,380)" opacity="1" style="display: block;"><g opacity="1" transform="matrix(2,0,0,2,0,0)"><path stroke-linecap="butt" stroke-linejoin="miter" fill-opacity="0" stroke-miterlimit="4" stroke="rgb(218,219,223)" stroke-opacity="1" stroke-width="4" d=" M140,-74 C140,-74 140,74 140,74 C140,77.3114013671875 137.3114013671875,80 134,80 C134,80 -134,80 -134,80 C-137.3114013671875,80 -140,77.3114013671875 -140,74 C-140,74 -140,-74 -140,-74 C-140,-77.3114013671875 -137.3114013671875,-80 -134,-80 C-134,-80 134,-80 134,-80 C137.3114013671875,-80 140,-77.3114013671875 140,-74z"></path></g></g><g clip-path="url(#cp_UMefxHhk)" style="display: block;" transform="matrix(0,1,-1,0,980,-220)" opacity="0"><g transform="matrix(1,0,0,1,600,380)" opacity="1" style="display: block;"><g opacity="1" transform="matrix(2,0,0,2,0,0)"><path stroke-linecap="butt" stroke-linejoin="miter" fill-opacity="0" stroke-miterlimit="4" stroke="rgb(52,168,82)" stroke-opacity="1" stroke-width="4" d=" M-9.918999671936035,100 C-78.46499633789062,100 -144,100 -144,100 C-147.3114013671875,100 -150,97.3114013671875 -150,94 C-150,94 -150,40.143001556396484 -150,-9.918999671936035"></path></g></g><g transform="matrix(1,0,0,1,600,380)" opacity="1" style="display: block;"><g opacity="1" transform="matrix(2,0,0,2,0,0)"><path stroke-linecap="butt" stroke-linejoin="miter" fill-opacity="0" stroke-miterlimit="4" stroke="rgb(251,188,3)" stroke-opacity="1" stroke-width="4" d=" M-150,-9.918999671936035 C-150,-53.38999938964844 -150,-94 -150,-94 C-150,-97.3114013671875 -147.3114013671875,-100 -144,-100 C-144,-100 -65.23100280761719,-100 9.918999671936035,-100"></path></g></g><g transform="matrix(1,0,0,1,600,380)" opacity="1" style="display: block;"><g opacity="1" transform="matrix(2,0,0,2,0,0)"><path stroke-linecap="butt" stroke-linejoin="miter" fill-opacity="0" stroke-miterlimit="4" stroke="rgb(232,66,52)" stroke-opacity="1" stroke-width="4" d=" M9.918999671936035,-100 C78.46499633789062,-100 144,-100 144,-100 C147.3114013671875,-100 150,-97.3114013671875 150,-94 C150,-94 150,-94 150,-94 C150,-94 150,-40.143001556396484 150,9.918999671936035"></path></g></g><g transform="matrix(1,0,0,1,600,380)" opacity="1" style="display: block;"><g opacity="1" transform="matrix(2,0,0,2,0,0)"><path stroke-linecap="butt" stroke-linejoin="miter" fill-opacity="0" stroke-miterlimit="4" stroke="rgb(66,133,244)" stroke-opacity="1" stroke-width="4" d=" M150,9.918999671936035 C150,53.38999938964844 150,94 150,94 C150,97.3114013671875 147.3114013671875,100 144,100 C144,100 65.23100280761719,100 -9.918999671936035,100"></path></g></g></g><g mask="url(#ly_FFZMhRYh74)" style="display: block;"><g clip-path="url(#cp_Hcqs2kI5)" transform="matrix(1,0,0,1,0,0)" opacity="1"><g clip-path="url(#SWGzGQ20qg)"><g transform="matrix(1,0,0,1,588,284)" opacity="1" style="display: block;"><g opacity="1" transform="matrix(2,0,0,2,0,0)"><path fill="rgb(232,66,52)" fill-opacity="1" d=" M0,0 C0,0 12,0 12,0 C12,0 12,89 12,89 C12,89 0,89 0,89 C0,89 0,0 0,0z"></path></g></g><g transform="matrix(1,0,0,1,583,363)" opacity="1" style="display: block;"><g opacity="1" transform="matrix(2,0,0,2,0,0)"><path fill="rgb(251,188,3)" fill-opacity="1" d=" M8.5,56.5 C8.5,56.5 0,48 0,48 C0,48 48,0 48,0 C48,0 56.5,8.5 56.5,8.5 C56.5,8.5 8.5,56.5 8.5,56.5z"></path></g></g><g transform="matrix(1,0,0,1,504,363)" opacity="1" style="display: block;"><g opacity="1" transform="matrix(2,0,0,2,0,0)"><path fill="rgb(52,168,82)" fill-opacity="1" d=" M0,8.5 C0,8.5 8.5,0 8.5,0 C8.5,0 56.5,48 56.5,48 C56.5,48 48,56.5 48,56.5 C48,56.5 0,8.5 0,8.5z"></path></g></g></g></g></g><g mask="url(#ly_U7zCky55ZX)" style="display: block;"><g clip-path="url(#cp_IVl2hC9I)" transform="matrix(1,0,0,1,0,0)" opacity="0"><g style="display: block;" transform="matrix(1.399999976158142,0,0,1.399999976158142,270,148)" opacity="1"><g opacity="1" transform="matrix(2,0,0,2,0,0)"><path fill="rgb(232,66,52)" fill-opacity="1" d=" M58,0 C58,0 58,44.810001373291016 58,44.810001373291016 C58,44.810001373291016 46.400001525878906,1.5299999713897705 46.400001525878906,1.5299999713897705 C46.400001525878906,1.5299999713897705 42.540000915527344,2.559999942779541 42.540000915527344,2.559999942779541 C42.540000915527344,2.559999942779541 54.13999938964844,45.84000015258789 54.13999938964844,45.84000015258789 C54.13999938964844,45.84000015258789 31.729999542236328,7.039999961853027 31.729999542236328,7.039999961853027 C31.729999542236328,7.039999961853027 28.270000457763672,9.039999961853027 28.270000457763672,9.039999961853027 C28.270000457763672,9.039999961853027 50.66999816894531,47.84000015258789 50.66999816894531,47.84000015258789 C50.66999816894531,47.84000015258789 18.989999771118164,16.15999984741211 18.989999771118164,16.15999984741211 C18.989999771118164,16.15999984741211 16.15999984741211,18.989999771118164 16.15999984741211,18.989999771118164 C16.15999984741211,18.989999771118164 47.849998474121094,50.66999816894531 47.849998474121094,50.66999816894531 C47.849998474121094,50.66999816894531 9.039999961853027,28.270000457763672 9.039999961853027,28.270000457763672 C9.039999961853027,28.270000457763672 7.039999961853027,31.729999542236328 7.039999961853027,31.729999542236328 C7.039999961853027,31.729999542236328 45.849998474121094,54.13999938964844 45.849998474121094,54.13999938964844 C45.849998474121094,54.13999938964844 2.559999942779541,42.540000915527344 2.559999942779541,42.540000915527344 C2.559999942779541,42.540000915527344 1.5299999713897705,46.400001525878906 1.5299999713897705,46.400001525878906 C1.5299999713897705,46.400001525878906 44.810001373291016,58 44.810001373291016,58 C44.810001373291016,58 0,58 0,58 C0,58 0,62 0,62 C0,62 44.810001373291016,62 44.810001373291016,62 C44.810001373291016,62 1.5299999713897705,73.5999984741211 1.5299999713897705,73.5999984741211 C1.5299999713897705,73.5999984741211 2.559999942779541,77.45999908447266 2.559999942779541,77.45999908447266 C2.559999942779541,77.45999908447266 45.849998474121094,65.86000061035156 45.849998474121094,65.86000061035156 C45.849998474121094,65.86000061035156 7.039999961853027,88.2699966430664 7.039999961853027,88.2699966430664 C7.039999961853027,88.2699966430664 9.039999961853027,91.7300033569336 9.039999961853027,91.7300033569336 C9.039999961853027,91.7300033569336 47.849998474121094,69.33000183105469 47.849998474121094,69.33000183105469 C47.849998474121094,69.33000183105469 16.15999984741211,101.01000213623047 16.15999984741211,101.01000213623047 C16.15999984741211,101.01000213623047 18.989999771118164,103.83999633789062 18.989999771118164,103.83999633789062 C18.989999771118164,103.83999633789062 50.66999816894531,72.16000366210938 50.66999816894531,72.16000366210938 C50.66999816894531,72.16000366210938 28.270000457763672,110.95999908447266 28.270000457763672,110.95999908447266 C28.270000457763672,110.95999908447266 31.729999542236328,112.95999908447266 31.729999542236328,112.95999908447266 C31.729999542236328,112.95999908447266 54.13999938964844,74.16000366210938 54.13999938964844,74.16000366210938 C54.13999938964844,74.16000366210938 42.540000915527344,117.44000244140625 42.540000915527344,117.44000244140625 C42.540000915527344,117.44000244140625 46.400001525878906,118.47000122070312 46.400001525878906,118.47000122070312 C46.400001525878906,118.47000122070312 58,75.19000244140625 58,75.19000244140625 C58,75.19000244140625 58,120 58,120 C58,120 62,120 62,120 C62,120 62,75.19000244140625 62,75.19000244140625 C62,75.19000244140625 73.5999984741211,118.47000122070312 73.5999984741211,118.47000122070312 C73.5999984741211,118.47000122070312 77.45999908447266,117.44000244140625 77.45999908447266,117.44000244140625 C77.45999908447266,117.44000244140625 65.86000061035156,74.16000366210938 65.86000061035156,74.16000366210938 C65.86000061035156,74.16000366210938 88.2699966430664,112.95999908447266 88.2699966430664,112.95999908447266 C88.2699966430664,112.95999908447266 91.7300033569336,110.95999908447266 91.7300033569336,110.95999908447266 C91.7300033569336,110.95999908447266 69.33000183105469,72.16000366210938 69.33000183105469,72.16000366210938 C69.33000183105469,72.16000366210938 101.01000213623047,103.83999633789062 101.01000213623047,103.83999633789062 C101.01000213623047,103.83999633789062 103.83999633789062,101.01000213623047 103.83999633789062,101.01000213623047 C103.83999633789062,101.01000213623047 72.16000366210938,69.33000183105469 72.16000366210938,69.33000183105469 C72.16000366210938,69.33000183105469 110.95999908447266,91.7300033569336 110.95999908447266,91.7300033569336 C110.95999908447266,91.7300033569336 112.95999908447266,88.2699966430664 112.95999908447266,88.2699966430664 C112.95999908447266,88.2699966430664 74.16000366210938,65.86000061035156 74.16000366210938,65.86000061035156 C74.16000366210938,65.86000061035156 117.44000244140625,77.45999908447266 117.44000244140625,77.45999908447266 C117.44000244140625,77.45999908447266 118.47000122070312,73.5999984741211 118.47000122070312,73.5999984741211 C118.47000122070312,73.5999984741211 75.19000244140625,62 75.19000244140625,62 C75.19000244140625,62 120,62 120,62 C120,62 120,58 120,58 C120,58 75.19000244140625,58 75.19000244140625,58 C75.19000244140625,58 118.47000122070312,46.400001525878906 118.47000122070312,46.400001525878906 C118.47000122070312,46.400001525878906 117.44000244140625,42.540000915527344 117.44000244140625,42.540000915527344 C117.44000244140625,42.540000915527344 74.16000366210938,54.13999938964844 74.16000366210938,54.13999938964844 C74.16000366210938,54.13999938964844 112.95999908447266,31.729999542236328 112.95999908447266,31.729999542236328 C112.95999908447266,31.729999542236328 110.95999908447266,28.270000457763672 110.95999908447266,28.270000457763672 C110.95999908447266,28.270000457763672 72.16000366210938,50.66999816894531 72.16000366210938,50.66999816894531 C72.16000366210938,50.66999816894531 103.83999633789062,18.989999771118164 103.83999633789062,18.989999771118164 C103.83999633789062,18.989999771118164 101.01000213623047,16.15999984741211 101.01000213623047,16.15999984741211 C101.01000213623047,16.15999984741211 69.33000183105469,47.84000015258789 69.33000183105469,47.84000015258789 C69.33000183105469,47.84000015258789 91.7300033569336,9.039999961853027 91.7300033569336,9.039999961853027 C91.7300033569336,9.039999961853027 88.2699966430664,7.039999961853027 88.2699966430664,7.039999961853027 C88.2699966430664,7.039999961853027 65.86000061035156,45.84000015258789 65.86000061035156,45.84000015258789 C65.86000061035156,45.84000015258789 77.45999908447266,2.559999942779541 77.45999908447266,2.559999942779541 C77.45999908447266,2.559999942779541 73.5999984741211,1.5299999713897705 73.5999984741211,1.5299999713897705 C73.5999984741211,1.5299999713897705 62,44.810001373291016 62,44.810001373291016 C62,44.810001373291016 62,0 62,0 C62,0 58,0 58,0z"></path></g></g><g style="display: block;" transform="matrix(3.5999999046325684,0,0,3.5999999046325684,438,316)" opacity="1"><g opacity="1" transform="matrix(2,0,0,2,0,0)"><path fill="rgb(255,255,255)" fill-opacity="1" d=" M0,-25 C13.797499656677246,-25 25,-13.797499656677246 25,0 C25,13.797499656677246 13.797499656677246,25 0,25 C-13.797499656677246,25 -25,13.797499656677246 -25,0 C-25,-13.797499656677246 -13.797499656677246,-25 0,-25z"></path></g></g><g style="display: block;" transform="matrix(1.399999976158142,0,0,1.399999976158142,616,252)" opacity="1"><g opacity="1" transform="matrix(2,0,0,2,0,0)"><path fill="rgb(66,133,244)" fill-opacity="1" d=" M48,0 C48,0 48,34.810001373291016 48,34.810001373291016 C48,34.810001373291016 38.9900016784668,1.190000057220459 38.9900016784668,1.190000057220459 C38.9900016784668,1.190000057220459 35.130001068115234,2.2200000286102295 35.130001068115234,2.2200000286102295 C35.130001068115234,2.2200000286102295 44.13999938964844,35.84000015258789 44.13999938964844,35.84000015258789 C44.13999938964844,35.84000015258789 26.729999542236328,5.699999809265137 26.729999542236328,5.699999809265137 C26.729999542236328,5.699999809265137 23.270000457763672,7.699999809265137 23.270000457763672,7.699999809265137 C23.270000457763672,7.699999809265137 40.66999816894531,37.849998474121094 40.66999816894531,37.849998474121094 C40.66999816894531,37.849998474121094 16.059999465942383,13.229999542236328 16.059999465942383,13.229999542236328 C16.059999465942383,13.229999542236328 13.229999542236328,16.059999465942383 13.229999542236328,16.059999465942383 C13.229999542236328,16.059999465942383 37.849998474121094,40.66999816894531 37.849998474121094,40.66999816894531 C37.849998474121094,40.66999816894531 7.699999809265137,23.270000457763672 7.699999809265137,23.270000457763672 C7.699999809265137,23.270000457763672 5.699999809265137,26.729999542236328 5.699999809265137,26.729999542236328 C5.699999809265137,26.729999542236328 35.849998474121094,44.13999938964844 35.849998474121094,44.13999938964844 C35.849998474121094,44.13999938964844 2.2200000286102295,35.130001068115234 2.2200000286102295,35.130001068115234 C2.2200000286102295,35.130001068115234 1.190000057220459,38.9900016784668 1.190000057220459,38.9900016784668 C1.190000057220459,38.9900016784668 34.810001373291016,48 34.810001373291016,48 C34.810001373291016,48 0,48 0,48 C0,48 0,52 0,52 C0,52 34.810001373291016,52 34.810001373291016,52 C34.810001373291016,52 1.190000057220459,61.0099983215332 1.190000057220459,61.0099983215332 C1.190000057220459,61.0099983215332 2.2200000286102295,64.87000274658203 2.2200000286102295,64.87000274658203 C2.2200000286102295,64.87000274658203 35.849998474121094,55.86000061035156 35.849998474121094,55.86000061035156 C35.849998474121094,55.86000061035156 5.699999809265137,73.2699966430664 5.699999809265137,73.2699966430664 C5.699999809265137,73.2699966430664 7.699999809265137,76.7300033569336 7.699999809265137,76.7300033569336 C7.699999809265137,76.7300033569336 37.849998474121094,59.33000183105469 37.849998474121094,59.33000183105469 C37.849998474121094,59.33000183105469 13.229999542236328,83.94000244140625 13.229999542236328,83.94000244140625 C13.229999542236328,83.94000244140625 16.059999465942383,86.7699966430664 16.059999465942383,86.7699966430664 C16.059999465942383,86.7699966430664 40.66999816894531,62.15999984741211 40.66999816894531,62.15999984741211 C40.66999816894531,62.15999984741211 23.270000457763672,92.30000305175781 23.270000457763672,92.30000305175781 C23.270000457763672,92.30000305175781 26.729999542236328,94.30000305175781 26.729999542236328,94.30000305175781 C26.729999542236328,94.30000305175781 44.13999938964844,64.16000366210938 44.13999938964844,64.16000366210938 C44.13999938964844,64.16000366210938 35.130001068115234,97.77999877929688 35.130001068115234,97.77999877929688 C35.130001068115234,97.77999877929688 38.9900016784668,98.80999755859375 38.9900016784668,98.80999755859375 C38.9900016784668,98.80999755859375 48,65.19000244140625 48,65.19000244140625 C48,65.19000244140625 48,100 48,100 C48,100 52,100 52,100 C52,100 52,65.19000244140625 52,65.19000244140625 C52,65.19000244140625 61.0099983215332,98.80999755859375 61.0099983215332,98.80999755859375 C61.0099983215332,98.80999755859375 64.87000274658203,97.77999877929688 64.87000274658203,97.77999877929688 C64.87000274658203,97.77999877929688 55.86000061035156,64.16000366210938 55.86000061035156,64.16000366210938 C55.86000061035156,64.16000366210938 73.2699966430664,94.30000305175781 73.2699966430664,94.30000305175781 C73.2699966430664,94.30000305175781 76.7300033569336,92.30000305175781 76.7300033569336,92.30000305175781 C76.7300033569336,92.30000305175781 59.33000183105469,62.15999984741211 59.33000183105469,62.15999984741211 C59.33000183105469,62.15999984741211 83.94000244140625,86.7699966430664 83.94000244140625,86.7699966430664 C83.94000244140625,86.7699966430664 86.7699966430664,83.94000244140625 86.7699966430664,83.94000244140625 C86.7699966430664,83.94000244140625 62.15999984741211,59.33000183105469 62.15999984741211,59.33000183105469 C62.15999984741211,59.33000183105469 92.30000305175781,76.7300033569336 92.30000305175781,76.7300033569336 C92.30000305175781,76.7300033569336 94.30000305175781,73.2699966430664 94.30000305175781,73.2699966430664 C94.30000305175781,73.2699966430664 64.16000366210938,55.86000061035156 64.16000366210938,55.86000061035156 C64.16000366210938,55.86000061035156 97.77999877929688,64.87000274658203 97.77999877929688,64.87000274658203 C97.77999877929688,64.87000274658203 98.80999755859375,61.0099983215332 98.80999755859375,61.0099983215332 C98.80999755859375,61.0099983215332 65.19000244140625,52 65.19000244140625,52 C65.19000244140625,52 100,52 100,52 C100,52 100,48 100,48 C100,48 65.19000244140625,48 65.19000244140625,48 C65.19000244140625,48 98.80999755859375,38.9900016784668 98.80999755859375,38.9900016784668 C98.80999755859375,38.9900016784668 97.77999877929688,35.130001068115234 97.77999877929688,35.130001068115234 C97.77999877929688,35.130001068115234 64.16000366210938,44.13999938964844 64.16000366210938,44.13999938964844 C64.16000366210938,44.13999938964844 94.30000305175781,26.729999542236328 94.30000305175781,26.729999542236328 C94.30000305175781,26.729999542236328 92.30000305175781,23.270000457763672 92.30000305175781,23.270000457763672 C92.30000305175781,23.270000457763672 62.15999984741211,40.66999816894531 62.15999984741211,40.66999816894531 C62.15999984741211,40.66999816894531 86.7699966430664,16.059999465942383 86.7699966430664,16.059999465942383 C86.7699966430664,16.059999465942383 83.94000244140625,13.229999542236328 83.94000244140625,13.229999542236328 C83.94000244140625,13.229999542236328 59.33000183105469,37.849998474121094 59.33000183105469,37.849998474121094 C59.33000183105469,37.849998474121094 76.7300033569336,7.699999809265137 76.7300033569336,7.699999809265137 C76.7300033569336,7.699999809265137 73.2699966430664,5.699999809265137 73.2699966430664,5.699999809265137 C73.2699966430664,5.699999809265137 55.86000061035156,35.84000015258789 55.86000061035156,35.84000015258789 C55.86000061035156,35.84000015258789 64.87000274658203,2.2200000286102295 64.87000274658203,2.2200000286102295 C64.87000274658203,2.2200000286102295 61.0099983215332,1.190000057220459 61.0099983215332,1.190000057220459 C61.0099983215332,1.190000057220459 52,34.810001373291016 52,34.810001373291016 C52,34.810001373291016 52,0 52,0 C52,0 48,0 48,0z"></path></g></g><g style="display: block;" transform="matrix(3.5999999046325684,0,0,3.5999999046325684,756,392)" opacity="1"><g opacity="1" transform="matrix(2,0,0,2,0,0)"><path fill="rgb(255,255,255)" fill-opacity="1" d=" M0,-20 C11.038000106811523,-20 20,-11.038000106811523 20,0 C20,11.038000106811523 11.038000106811523,20 0,20 C-11.038000106811523,20 -20,11.038000106811523 -20,0 C-20,-11.038000106811523 -11.038000106811523,-20 0,-20z"></path></g></g><g style="display: block;" transform="matrix(1.399999976158142,0,0,1.399999976158142,444,404)" opacity="1"><g opacity="1" transform="matrix(2,0,0,2,0,0)"><path fill="rgb(251,188,3)" fill-opacity="1" d=" M28,0 C28,0 28,14.8100004196167 28,14.8100004196167 C28,14.8100004196167 24.170000076293945,0.5099999904632568 24.170000076293945,0.5099999904632568 C24.170000076293945,0.5099999904632568 20.299999237060547,1.5399999618530273 20.299999237060547,1.5399999618530273 C20.299999237060547,1.5399999618530273 24.139999389648438,15.850000381469727 24.139999389648438,15.850000381469727 C24.139999389648438,15.850000381469727 16.729999542236328,3.0199999809265137 16.729999542236328,3.0199999809265137 C16.729999542236328,3.0199999809265137 13.270000457763672,5.019999980926514 13.270000457763672,5.019999980926514 C13.270000457763672,5.019999980926514 20.670000076293945,17.850000381469727 20.670000076293945,17.850000381469727 C20.670000076293945,17.850000381469727 10.199999809265137,7.369999885559082 10.199999809265137,7.369999885559082 C10.199999809265137,7.369999885559082 7.369999885559082,10.199999809265137 7.369999885559082,10.199999809265137 C7.369999885559082,10.199999809265137 17.84000015258789,20.670000076293945 17.84000015258789,20.670000076293945 C17.84000015258789,20.670000076293945 5.019999980926514,13.270000457763672 5.019999980926514,13.270000457763672 C5.019999980926514,13.270000457763672 3.0199999809265137,16.729999542236328 3.0199999809265137,16.729999542236328 C3.0199999809265137,16.729999542236328 15.850000381469727,24.139999389648438 15.850000381469727,24.139999389648438 C15.850000381469727,24.139999389648438 1.5399999618530273,20.299999237060547 1.5399999618530273,20.299999237060547 C1.5399999618530273,20.299999237060547 0.5,24.170000076293945 0.5,24.170000076293945 C0.5,24.170000076293945 14.8100004196167,28 14.8100004196167,28 C14.8100004196167,28 0,28 0,28 C0,28 0,32 0,32 C0,32 14.8100004196167,32 14.8100004196167,32 C14.8100004196167,32 0.5,35.83000183105469 0.5,35.83000183105469 C0.5,35.83000183105469 1.5399999618530273,39.70000076293945 1.5399999618530273,39.70000076293945 C1.5399999618530273,39.70000076293945 15.850000381469727,35.86000061035156 15.850000381469727,35.86000061035156 C15.850000381469727,35.86000061035156 3.0199999809265137,43.27000045776367 3.0199999809265137,43.27000045776367 C3.0199999809265137,43.27000045776367 5.019999980926514,46.72999954223633 5.019999980926514,46.72999954223633 C5.019999980926514,46.72999954223633 17.84000015258789,39.33000183105469 17.84000015258789,39.33000183105469 C17.84000015258789,39.33000183105469 7.369999885559082,49.79999923706055 7.369999885559082,49.79999923706055 C7.369999885559082,49.79999923706055 10.199999809265137,52.630001068115234 10.199999809265137,52.630001068115234 C10.199999809265137,52.630001068115234 20.670000076293945,42.15999984741211 20.670000076293945,42.15999984741211 C20.670000076293945,42.15999984741211 13.270000457763672,54.97999954223633 13.270000457763672,54.97999954223633 C13.270000457763672,54.97999954223633 16.729999542236328,56.97999954223633 16.729999542236328,56.97999954223633 C16.729999542236328,56.97999954223633 24.139999389648438,44.15999984741211 24.139999389648438,44.15999984741211 C24.139999389648438,44.15999984741211 20.299999237060547,58.459999084472656 20.299999237060547,58.459999084472656 C20.299999237060547,58.459999084472656 24.170000076293945,59.5 24.170000076293945,59.5 C24.170000076293945,59.5 28,45.189998626708984 28,45.189998626708984 C28,45.189998626708984 28,60 28,60 C28,60 32,60 32,60 C32,60 32,45.189998626708984 32,45.189998626708984 C32,45.189998626708984 35.83000183105469,59.5 35.83000183105469,59.5 C35.83000183105469,59.5 39.70000076293945,58.459999084472656 39.70000076293945,58.459999084472656 C39.70000076293945,58.459999084472656 35.86000061035156,44.15999984741211 35.86000061035156,44.15999984741211 C35.86000061035156,44.15999984741211 43.27000045776367,56.97999954223633 43.27000045776367,56.97999954223633 C43.27000045776367,56.97999954223633 46.72999954223633,54.97999954223633 46.72999954223633,54.97999954223633 C46.72999954223633,54.97999954223633 39.33000183105469,42.15999984741211 39.33000183105469,42.15999984741211 C39.33000183105469,42.15999984741211 49.79999923706055,52.630001068115234 49.79999923706055,52.630001068115234 C49.79999923706055,52.630001068115234 52.630001068115234,49.79999923706055 52.630001068115234,49.79999923706055 C52.630001068115234,49.79999923706055 42.15999984741211,39.33000183105469 42.15999984741211,39.33000183105469 C42.15999984741211,39.33000183105469 54.97999954223633,46.72999954223633 54.97999954223633,46.72999954223633 C54.97999954223633,46.72999954223633 56.97999954223633,43.27000045776367 56.97999954223633,43.27000045776367 C56.97999954223633,43.27000045776367 44.15999984741211,35.86000061035156 44.15999984741211,35.86000061035156 C44.15999984741211,35.86000061035156 58.459999084472656,39.70000076293945 58.459999084472656,39.70000076293945 C58.459999084472656,39.70000076293945 59.5,35.83000183105469 59.5,35.83000183105469 C59.5,35.83000183105469 45.189998626708984,32 45.189998626708984,32 C45.189998626708984,32 60,32 60,32 C60,32 60,28 60,28 C60,28 45.189998626708984,28 45.189998626708984,28 C45.189998626708984,28 59.5,24.170000076293945 59.5,24.170000076293945 C59.5,24.170000076293945 58.459999084472656,20.299999237060547 58.459999084472656,20.299999237060547 C58.459999084472656,20.299999237060547 44.15999984741211,24.139999389648438 44.15999984741211,24.139999389648438 C44.15999984741211,24.139999389648438 56.97999954223633,16.729999542236328 56.97999954223633,16.729999542236328 C56.97999954223633,16.729999542236328 54.97999954223633,13.270000457763672 54.97999954223633,13.270000457763672 C54.97999954223633,13.270000457763672 42.15999984741211,20.670000076293945 42.15999984741211,20.670000076293945 C42.15999984741211,20.670000076293945 52.630001068115234,10.199999809265137 52.630001068115234,10.199999809265137 C52.630001068115234,10.199999809265137 49.79999923706055,7.369999885559082 49.79999923706055,7.369999885559082 C49.79999923706055,7.369999885559082 39.33000183105469,17.850000381469727 39.33000183105469,17.850000381469727 C39.33000183105469,17.850000381469727 46.72999954223633,5.019999980926514 46.72999954223633,5.019999980926514 C46.72999954223633,5.019999980926514 43.27000045776367,3.0199999809265137 43.27000045776367,3.0199999809265137 C43.27000045776367,3.0199999809265137 35.86000061035156,15.850000381469727 35.86000061035156,15.850000381469727 C35.86000061035156,15.850000381469727 39.70000076293945,1.5399999618530273 39.70000076293945,1.5399999618530273 C39.70000076293945,1.5399999618530273 35.83000183105469,0.5099999904632568 35.83000183105469,0.5099999904632568 C35.83000183105469,0.5099999904632568 32,14.8100004196167 32,14.8100004196167 C32,14.8100004196167 32,0 32,0 C32,0 28,0 28,0z"></path></g></g><g style="display: block;" transform="matrix(3.5999999046325684,0,0,3.5999999046325684,528,488)" opacity="1"><g opacity="1" transform="matrix(2,0,0,2,0,0)"><path fill="rgb(255,255,255)" fill-opacity="1" d=" M0,-15 C8.278499603271484,-15 15,-8.278499603271484 15,0 C15,8.278499603271484 8.278499603271484,15 0,15 C-8.278499603271484,15 -15,8.278499603271484 -15,0 C-15,-8.278499603271484 -8.278499603271484,-15 0,-15z"></path></g></g><g style="display: block;" transform="matrix(1.399999976158142,0,0,1.399999976158142,576,154)" opacity="1"><g opacity="1" transform="matrix(2,0,0,2,0,0)"><path fill="rgb(52,168,82)" fill-opacity="1" d=" M48,0 C48,0 48,34.810001373291016 48,34.810001373291016 C48,34.810001373291016 38.9900016784668,1.190000057220459 38.9900016784668,1.190000057220459 C38.9900016784668,1.190000057220459 35.130001068115234,2.2200000286102295 35.130001068115234,2.2200000286102295 C35.130001068115234,2.2200000286102295 44.13999938964844,35.84000015258789 44.13999938964844,35.84000015258789 C44.13999938964844,35.84000015258789 26.729999542236328,5.699999809265137 26.729999542236328,5.699999809265137 C26.729999542236328,5.699999809265137 23.270000457763672,7.699999809265137 23.270000457763672,7.699999809265137 C23.270000457763672,7.699999809265137 40.66999816894531,37.849998474121094 40.66999816894531,37.849998474121094 C40.66999816894531,37.849998474121094 16.059999465942383,13.229999542236328 16.059999465942383,13.229999542236328 C16.059999465942383,13.229999542236328 13.229999542236328,16.059999465942383 13.229999542236328,16.059999465942383 C13.229999542236328,16.059999465942383 37.849998474121094,40.66999816894531 37.849998474121094,40.66999816894531 C37.849998474121094,40.66999816894531 7.699999809265137,23.270000457763672 7.699999809265137,23.270000457763672 C7.699999809265137,23.270000457763672 5.699999809265137,26.729999542236328 5.699999809265137,26.729999542236328 C5.699999809265137,26.729999542236328 35.849998474121094,44.13999938964844 35.849998474121094,44.13999938964844 C35.849998474121094,44.13999938964844 2.2200000286102295,35.130001068115234 2.2200000286102295,35.130001068115234 C2.2200000286102295,35.130001068115234 1.190000057220459,38.9900016784668 1.190000057220459,38.9900016784668 C1.190000057220459,38.9900016784668 34.810001373291016,48 34.810001373291016,48 C34.810001373291016,48 0,48 0,48 C0,48 0,52 0,52 C0,52 34.810001373291016,52 34.810001373291016,52 C34.810001373291016,52 1.190000057220459,61.0099983215332 1.190000057220459,61.0099983215332 C1.190000057220459,61.0099983215332 2.2200000286102295,64.87000274658203 2.2200000286102295,64.87000274658203 C2.2200000286102295,64.87000274658203 35.849998474121094,55.86000061035156 35.849998474121094,55.86000061035156 C35.849998474121094,55.86000061035156 5.699999809265137,73.2699966430664 5.699999809265137,73.2699966430664 C5.699999809265137,73.2699966430664 7.699999809265137,76.7300033569336 7.699999809265137,76.7300033569336 C7.699999809265137,76.7300033569336 37.849998474121094,59.33000183105469 37.849998474121094,59.33000183105469 C37.849998474121094,59.33000183105469 13.229999542236328,83.94000244140625 13.229999542236328,83.94000244140625 C13.229999542236328,83.94000244140625 16.059999465942383,86.7699966430664 16.059999465942383,86.7699966430664 C16.059999465942383,86.7699966430664 40.66999816894531,62.15999984741211 40.66999816894531,62.15999984741211 C40.66999816894531,62.15999984741211 23.270000457763672,92.30000305175781 23.270000457763672,92.30000305175781 C23.270000457763672,92.30000305175781 26.729999542236328,94.30000305175781 26.729999542236328,94.30000305175781 C26.729999542236328,94.30000305175781 44.13999938964844,64.16000366210938 44.13999938964844,64.16000366210938 C44.13999938964844,64.16000366210938 35.130001068115234,97.77999877929688 35.130001068115234,97.77999877929688 C35.130001068115234,97.77999877929688 38.9900016784668,98.80999755859375 38.9900016784668,98.80999755859375 C38.9900016784668,98.80999755859375 48,65.19000244140625 48,65.19000244140625 C48,65.19000244140625 48,100 48,100 C48,100 52,100 52,100 C52,100 52,65.19000244140625 52,65.19000244140625 C52,65.19000244140625 61.0099983215332,98.80999755859375 61.0099983215332,98.80999755859375 C61.0099983215332,98.80999755859375 64.87000274658203,97.77999877929688 64.87000274658203,97.77999877929688 C64.87000274658203,97.77999877929688 55.86000061035156,64.16000366210938 55.86000061035156,64.16000366210938 C55.86000061035156,64.16000366210938 73.2699966430664,94.30000305175781 73.2699966430664,94.30000305175781 C73.2699966430664,94.30000305175781 76.7300033569336,92.30000305175781 76.7300033569336,92.30000305175781 C76.7300033569336,92.30000305175781 59.33000183105469,62.15999984741211 59.33000183105469,62.15999984741211 C59.33000183105469,62.15999984741211 83.94000244140625,86.7699966430664 83.94000244140625,86.7699966430664 C83.94000244140625,86.7699966430664 86.7699966430664,83.94000244140625 86.7699966430664,83.94000244140625 C86.7699966430664,83.94000244140625 62.15999984741211,59.33000183105469 62.15999984741211,59.33000183105469 C62.15999984741211,59.33000183105469 92.30000305175781,76.7300033569336 92.30000305175781,76.7300033569336 C92.30000305175781,76.7300033569336 94.30000305175781,73.2699966430664 94.30000305175781,73.2699966430664 C94.30000305175781,73.2699966430664 64.16000366210938,55.86000061035156 64.16000366210938,55.86000061035156 C64.16000366210938,55.86000061035156 97.77999877929688,64.87000274658203 97.77999877929688,64.87000274658203 C97.77999877929688,64.87000274658203 98.80999755859375,61.0099983215332 98.80999755859375,61.0099983215332 C98.80999755859375,61.0099983215332 65.19000244140625,52 65.19000244140625,52 C65.19000244140625,52 100,52 100,52 C100,52 100,48 100,48 C100,48 65.19000244140625,48 65.19000244140625,48 C65.19000244140625,48 98.80999755859375,38.9900016784668 98.80999755859375,38.9900016784668 C98.80999755859375,38.9900016784668 97.77999877929688,35.130001068115234 97.77999877929688,35.130001068115234 C97.77999877929688,35.130001068115234 64.16000366210938,44.13999938964844 64.16000366210938,44.13999938964844 C64.16000366210938,44.13999938964844 94.30000305175781,26.729999542236328 94.30000305175781,26.729999542236328 C94.30000305175781,26.729999542236328 92.30000305175781,23.270000457763672 92.30000305175781,23.270000457763672 C92.30000305175781,23.270000457763672 62.15999984741211,40.66999816894531 62.15999984741211,40.66999816894531 C62.15999984741211,40.66999816894531 86.7699966430664,16.059999465942383 86.7699966430664,16.059999465942383 C86.7699966430664,16.059999465942383 83.94000244140625,13.229999542236328 83.94000244140625,13.229999542236328 C83.94000244140625,13.229999542236328 59.33000183105469,37.849998474121094 59.33000183105469,37.849998474121094 C59.33000183105469,37.849998474121094 76.7300033569336,7.699999809265137 76.7300033569336,7.699999809265137 C76.7300033569336,7.699999809265137 73.2699966430664,5.699999809265137 73.2699966430664,5.699999809265137 C73.2699966430664,5.699999809265137 55.86000061035156,35.84000015258789 55.86000061035156,35.84000015258789 C55.86000061035156,35.84000015258789 64.87000274658203,2.2200000286102295 64.87000274658203,2.2200000286102295 C64.87000274658203,2.2200000286102295 61.0099983215332,1.190000057220459 61.0099983215332,1.190000057220459 C61.0099983215332,1.190000057220459 52,34.810001373291016 52,34.810001373291016 C52,34.810001373291016 52,0 52,0 C52,0 48,0 48,0z"></path></g></g><g style="display: block;" transform="matrix(3.5999999046325684,0,0,3.5999999046325684,716,294)" opacity="1"><g opacity="1" transform="matrix(2,0,0,2,0,0)"><path fill="rgb(255,255,255)" fill-opacity="1" d=" M0,-20 C11.038000106811523,-20 20,-11.038000106811523 20,0 C20,11.038000106811523 11.038000106811523,20 0,20 C-11.038000106811523,20 -20,11.038000106811523 -20,0 C-20,-11.038000106811523 -11.038000106811523,-20 0,-20z"></path></g></g></g></g></g></g></svg>
